<svg width="21" height="22" viewBox="0 0 21 22" fill="none" xmlns="http://www.w3.org/2000/svg">
<path d="M19.5 9H1.5M14.5 1V5M6.5 1V5M6.3 21H14.7C16.3802 21 17.2202 21 17.862 20.673C18.4265 20.3854 18.8854 19.9265 19.173 19.362C19.5 18.7202 19.5 17.8802 19.5 16.2V7.8C19.5 6.11984 19.5 5.27976 19.173 4.63803C18.8854 4.07354 18.4265 3.6146 17.862 3.32698C17.2202 3 16.3802 3 14.7 3H6.3C4.61984 3 3.77976 3 3.13803 3.32698C2.57354 3.6146 2.1146 4.07354 1.82698 4.63803C1.5 5.27976 1.5 6.11984 1.5 7.8V16.2C1.5 17.8802 1.5 18.7202 1.82698 19.362C2.1146 19.9265 2.57354 20.3854 3.13803 20.673C3.77976 21 4.61984 21 6.3 21Z" stroke="white" stroke-width="2" stroke-linecap="round" stroke-linejoin="round"/>
</svg>
